<?xml version="1.0" encoding="iso-8859-1"?>
<!-- Uploaded to: SVG Repo, www.svgrepo.com, Generator: SVG Repo Mixer Tools -->
<!DOCTYPE svg PUBLIC "-//W3C//DTD SVG 1.1//EN" "http://www.w3.org/Graphics/SVG/1.1/DTD/svg11.dtd">
<svg fill="currentColor" version="1.1" id="Capa_1" xmlns="http://www.w3.org/2000/svg" xmlns:xlink="http://www.w3.org/1999/xlink" 
	 viewBox="0 0 246 246" xml:space="preserve">
<path d="M241,238.5c0,4.142-3.358,7.5-7.5,7.5h-221c-4.142,0-7.5-3.358-7.5-7.5v-18c0-4.142,3.358-7.5,7.5-7.5h221
	c4.142,0,7.5,3.358,7.5,7.5V238.5z M15.629,196.5l100.704,0.5h114.5c4.143,0,7.167-3.357,7.167-7.5v-87.58
	c0-2.158-0.763-4.211-2.384-5.635l-15.917-14.053c-2.212-1.943-5.484-2.411-8.167-1.198c-2.684,1.215-4.532,3.888-4.532,6.833V166
	h-18V58.882c0-2.158-0.763-4.211-2.384-5.635l-16.917-14.931c-2.212-1.944-5.485-2.41-8.167-1.198
	c-2.684,1.215-4.532,3.888-4.532,6.833V166h-18.041L130.823,7.116C130.619,3.128,127.325,0,123.333,0c-0.007,0-0.015,0-0.022,0
	c-4.002,0.012-7.289,3.164-7.47,7.161L108.664,166H90V42.804c0-2.94-1.551-5.609-4.228-6.827c-2.674-1.216-5.732-0.759-7.951,1.174
	L60.696,51.97C59.062,53.394,58,55.455,58,57.623V166H40V86.389c0-2.94-1.551-5.609-4.228-6.827
	c-2.675-1.216-5.733-0.759-7.95,1.174L10.697,95.554C9.062,96.978,8,99.039,8,101.207V189C8,193.128,11.501,196.479,15.629,196.5z"
	/>
</svg>