<svg width="27" height="27" viewBox="0 0 27 27" fill="none" xmlns="http://www.w3.org/2000/svg">
<g clip-path="url(#clip0_91_34)">
<path d="M13.4998 11.0454V16.2736H20.7652C20.4462 17.955 19.4888 19.3787 18.0529 20.3359L22.4342 23.7355C24.987 21.3792 26.4597 17.9183 26.4597 13.8069C26.4597 12.8497 26.3738 11.9291 26.2142 11.0456L13.4998 11.0454Z" fill="#4285F4"/>
<path d="M5.934 16.0695L4.94584 16.8259L1.44806 19.5504C3.66942 23.9563 8.22226 27 13.4995 27C17.1444 27 20.2003 25.7973 22.434 23.7355L18.0526 20.3359C16.8499 21.1459 15.3158 21.6369 13.4995 21.6369C9.98951 21.6369 7.00733 19.2683 5.93952 16.0773L5.934 16.0695Z" fill="#34A853"/>
<path d="M1.44808 7.44955C0.527672 9.26584 0 11.3154 0 13.4999C0 15.6844 0.527672 17.734 1.44808 19.5503C1.44808 19.5625 5.93997 16.0648 5.93997 16.0648C5.66997 15.2549 5.51038 14.3958 5.51038 13.4998C5.51038 12.6038 5.66997 11.7447 5.93997 10.9347L1.44808 7.44955Z" fill="#FBBC05"/>
<path d="M13.4998 5.37545C15.488 5.37545 17.2552 6.0627 18.6666 7.38818L22.5325 3.52232C20.1884 1.33781 17.1448 0 13.4998 0C8.22254 0 3.66942 3.03136 1.44806 7.44955L5.93982 10.935C7.00748 7.74407 9.98979 5.37545 13.4998 5.37545Z" fill="#EA4335"/>
</g>
<defs>
<clipPath id="clip0_91_34">
<rect width="27" height="27" fill="white"/>
</clipPath>
</defs>
</svg>
