<?xml version="1.0" encoding="utf-8"?>
<svg xmlns="http://www.w3.org/2000/svg" viewBox="320.524 231.415 23.536 26.4506" width="23.536px" height="26.4506px"><g id="object-0" transform="matrix(1, 0, 0, 1, 0, 2.842170943040401e-14)"><path fill-rule="evenodd" clip-rule="evenodd" d="M 343.692 241.123 C 343.692 241.123 342.736 239.358 342.883 238.108 C 342.728 238.159 342.609 238.247 342.476 238.346 C 342.42 238.388 342.36 238.431 342.294 238.475 L 342.147 238.475 C 342.147 238.475 342.221 237.813 342.883 237.299 L 342.956 237.299 L 343.03 237.004 L 341.706 236.122 C 340.309 233.989 337.881 232.371 335.307 231.93 C 335.234 231.93 335.087 231.93 335.013 231.856 C 334.903 231.856 334.811 231.838 334.719 231.819 C 334.627 231.801 334.535 231.782 334.425 231.782 C 334.719 231.856 334.94 231.93 335.234 232.077 C 336.263 232.444 337.146 233.033 337.955 233.768 C 338.051 233.864 338.154 233.959 338.26 234.057 C 338.48 234.261 338.712 234.476 338.911 234.724 C 338.617 234.504 338.396 234.357 338.102 234.21 C 337.734 234.062 337.293 233.915 336.852 233.768 C 337.072 233.989 337.367 234.43 337.514 234.798 C 336.116 233.18 334.057 232.003 331.924 231.635 C 331.63 231.488 331.262 231.415 330.968 231.415 C 331.005 231.415 331.06 231.433 331.115 231.451 C 331.17 231.47 331.225 231.488 331.262 231.488 C 331.336 231.525 331.409 231.543 331.483 231.562 C 331.556 231.58 331.63 231.599 331.703 231.635 C 333.321 232.224 334.719 233.253 335.675 234.577 C 335.013 233.915 334.351 233.474 333.542 233.18 L 333.174 233.18 C 326.187 233.18 320.524 238.843 320.524 245.83 C 320.524 247.595 320.892 249.213 321.554 250.758 C 321.554 250.619 321.537 250.48 321.52 250.333 C 321.501 250.17 321.48 249.996 321.48 249.802 C 321.48 249.14 321.554 248.478 321.627 247.89 C 322.289 252.302 325.452 256.201 330.085 257.451 C 331.63 257.892 333.174 257.966 334.719 257.745 C 335.307 257.671 335.822 257.598 336.411 257.377 C 336.484 257.341 336.558 257.322 336.631 257.304 C 336.705 257.285 336.778 257.267 336.852 257.23 C 335.822 257.304 334.792 257.157 333.91 256.789 C 333.873 256.789 333.818 256.771 333.763 256.752 C 333.708 256.734 333.652 256.715 333.616 256.715 L 335.087 256.715 C 336.19 256.568 337.293 256.201 338.249 255.686 C 339.132 255.171 339.941 254.509 340.603 253.626 C 340.64 253.59 340.658 253.553 340.676 253.516 C 340.695 253.479 340.713 253.442 340.75 253.406 C 340.823 253.259 340.897 253.185 341.044 253.038 C 340.603 253.406 340.088 253.7 339.573 253.994 C 339.5 254.068 339.352 254.141 339.279 254.141 C 339.867 253.626 340.456 252.964 340.823 252.229 C 341.559 250.979 342 249.581 342 248.037 L 342 247.669 L 342 247.669 C 341.78 248.331 341.559 248.993 341.191 249.581 L 341.201 249.545 C 341.372 248.953 342.117 246.362 340.75 243.771 L 340.75 243.844 L 340.75 243.865 C 340.758 243.889 340.765 243.914 340.773 243.938 C 340.784 243.952 340.8 243.968 340.823 243.991 L 340.823 243.991 C 341.118 245.021 341.265 246.124 341.118 247.228 C 340.676 250.979 337.587 253.921 333.91 254.215 C 333.26 254.263 332.623 254.232 332.01 254.131 C 328.165 253.572 325.213 250.262 325.213 246.262 C 325.213 245.813 325.25 245.373 325.321 244.944 C 325.797 241.861 328.1 239.333 331.041 238.549 C 331.703 238.328 332.439 238.255 333.101 238.255 C 333.91 238.255 334.645 238.402 335.381 238.622 L 335.601 237.519 L 336.118 238.876 C 336.705 239.111 337.257 239.413 337.764 239.774 C 337.619 239.509 337.412 239.176 337.146 238.843 C 337.146 238.843 338.2 239.604 339.054 240.918 C 339.178 241.054 339.297 241.194 339.411 241.339 C 339.274 241.416 339.12 241.521 339.032 241.644 C 339.48 241.772 340.11 242.373 340.495 243.172 C 340.509 243.204 340.522 243.237 340.535 243.269 C 340.801 243.317 341.677 243.509 342.294 244.065 L 342.368 244.065 C 342.662 243.256 343.471 242.815 343.471 242.815 C 343.471 242.815 343.545 241.711 344.06 241.123 L 343.692 241.123 Z M 340.309 238.622 C 339.573 238.108 338.323 237.887 338.323 237.887 L 338.764 237.446 L 338.838 237.078 C 339.426 237.299 339.794 237.74 340.014 238.034 C 340.088 238.108 340.161 238.181 340.161 238.255 C 340.309 238.475 340.309 238.622 340.309 238.622 Z" fill="white" style="stroke-width: 1px;" id="object-5"/><path d="M 338.371 246.262 C 338.371 249.086 336.081 251.376 333.257 251.376 C 330.433 251.376 328.143 249.086 328.143 246.262 C 328.143 243.438 330.433 241.149 333.257 241.149 C 336.081 241.149 338.371 243.438 338.371 246.262 Z" fill="#D44071" style="stroke-width: 1px;" id="object-4"/><path d="M 338.371 246.262 C 338.371 249.086 336.081 251.376 333.257 251.376 C 330.433 251.376 328.143 249.086 328.143 246.262 C 328.143 243.438 330.433 241.149 333.257 241.149 C 336.081 241.149 338.371 243.438 338.371 246.262 Z" stroke="#E85485" stroke-width="2" style="stroke-width: 2px;" id="object-3"/><path d="M 338.371 246.262 C 338.371 249.086 336.081 251.376 333.257 251.376 C 330.433 251.376 328.143 249.086 328.143 246.262 C 328.143 243.438 330.433 241.149 333.257 241.149 C 336.081 241.149 338.371 243.438 338.371 246.262 Z" stroke="#D44071" stroke-width="2" style="stroke-width: 2px;" id="object-2"/><path d="M 333.395 242.447 L 336.739 244.378 L 336.739 248.239 L 333.395 250.17 L 330.051 248.239 L 330.051 244.378 L 333.395 242.447 Z" fill="#F25E8F" style="stroke-width: 1px;" id="object-1"/><path d="M 334.651 241.033 C 334.651 241.033 334.796 242.429 335.378 243.011 C 335.96 243.593 337.356 243.738 337.356 243.738 C 337.356 243.738 335.96 243.883 335.378 244.465 C 334.796 245.047 334.651 246.443 334.651 246.443 C 334.651 246.443 334.506 245.047 333.924 244.465 C 333.342 243.883 331.946 243.738 331.946 243.738 C 331.946 243.738 333.342 243.593 333.924 243.011 C 334.506 242.429 334.651 241.033 334.651 241.033 Z" fill="white" style=""/></g></svg>