<svg width="128" height="128" viewBox="0 0 77 69" fill="currentColor" xmlns="http://www.w3.org/2000/svg">
<path d="M29.1798 0C32.114 0 34.9481 0.11608 37.6322 0.402962L40.3996 7.55346L41.2165 0.913712C41.6333 0.989992 42.0501 1.06959 42.4669 1.15748C43.984 1.47919 44.9843 2.35476 45.8512 3.62334C46.7181 4.89192 47.3349 6.52533 47.8684 8.03436C49.3355 12.1966 50.5025 16.5911 51.4361 21.0684C50.4358 21.9142 49.4355 22.7765 48.4519 23.6222L43.3338 20.7036L37.6989 25.0317L29.0464 21.7649L18.8769 25.8277L20.0105 28.597L29.0798 24.982L38.199 28.4146L43.5672 24.2855L46.0512 25.695C42.7836 28.5639 39.6161 31.3995 36.6319 34.1854L34.2979 33.1241L28.6463 35.794L23.4448 33.6216L19.4104 37.4854L21.4776 39.6412L24.1117 37.1372L28.713 39.0774L34.2145 36.4573C33.0642 37.5683 31.9472 38.6462 30.8636 39.7241L30.5802 40.0226L27.3293 52.6752L28.6296 51.73L37.4655 51.7963L43.8173 48.8446L50.8859 51.2657L51.8529 48.4466L43.6506 45.6276L36.7986 48.8114L32.6808 48.7783L44.4674 40.205C47.7517 40.9678 51.036 40.6693 54.1535 39.5914C54.8537 46.9542 55.1371 53.8029 55.3205 59.2752C55.3872 61.0495 54.8704 63.0892 54.0702 64.6646C53.2533 66.24 52.1196 67.2183 51.5695 67.3344C50.7025 67.5334 48.4019 67.8651 45.2843 68.1802L43.2171 61.7129L40.0329 68.6279C37.2487 68.8269 34.1979 68.9595 31.1137 68.9927C26.4123 69.0425 21.5943 68.8435 17.4431 68.2133C14.8091 67.8319 12.5084 67.2183 10.6579 66.4887C12.6251 65.643 14.2589 64.7309 15.5092 63.736C17.3598 62.2601 18.5434 60.5355 18.3934 58.6119V58.645C17.4931 42.6592 16.5929 27.3367 13.342 11.2183L13.3253 11.1519L13.3086 11.0856C12.425 8.11728 10.3244 4.4757 7.29025 1.82742C9.60757 1.48582 12.0583 1.16411 14.5756 0.888838L18.2934 5.08428L18.6601 0.490851C21.8277 0.218893 25.062 0.0414571 28.2295 0.00663327H29.1798V0ZM4.42278 3.38952C5.20633 4.00143 5.95654 4.72112 6.64007 5.50051C4.62283 6.85699 3.0724 9.37757 3.00571 11.6328C2.95569 12.9263 3.32246 14.1037 4.2894 15.1815C5.25634 16.2428 6.89014 17.2378 9.55756 17.8016L8.92405 20.7202C5.82317 20.0569 3.53919 18.8132 2.05544 17.1715C0.555008 15.5298 -0.0618286 13.4901 0.00485229 11.5333C0.104881 8.33285 1.85538 5.29986 4.42278 3.38952ZM76.9366 3.97324C76.9767 4.24022 77 4.54203 77 4.90519C76.9833 6.18041 76.6616 7.91828 76.0281 9.90822C75.4596 11.6826 74.6493 13.6393 73.6357 15.679C71.8635 14.8001 70.2031 13.8549 68.8994 12.6775C69.6362 14.7504 70.5915 16.7735 72.0003 18.7303C71.3101 19.9242 70.5615 21.1182 69.7579 22.2956C67.9841 21.4167 66.3036 20.1398 64.8366 17.9675C65.3867 20.6207 66.2486 23.0418 67.8824 24.8991C66.7938 26.3086 65.6318 27.685 64.4231 28.9618C62.9727 27.4196 61.8224 25.4795 60.9721 23.1745C60.3386 26.2423 60.5387 29.0282 61.9224 31.3664C60.5887 32.5603 59.205 33.6382 57.7879 34.5337C56.7709 32.2121 56.3041 29.4593 56.3708 26.292C54.8371 30.2221 54.487 33.406 54.7704 36.1588C51.4028 37.6844 47.9684 38.1487 44.5508 37.1703L43.8506 36.9548L32.2973 45.3456L33.2809 41.5648C45.4511 29.4925 62.5226 15.5795 76.9366 3.97324ZM29.0297 12.5946L23.4948 14.8831L18.2767 13.2414L17.3764 16.0936L23.6282 18.067L29.2298 15.7454L34.0312 17.0886L34.8314 14.2032L29.0297 12.5946ZM11.1413 51.7632C11.258 51.7632 11.3581 51.7798 11.4748 51.7798C12.0583 51.7964 12.6751 51.8627 13.3253 51.9953L12.7585 54.9139C10.7246 54.5325 9.42419 54.8476 8.67398 55.3285C7.94044 55.8094 7.62368 56.4561 7.60701 57.4013C7.59034 58.9435 8.77401 61.2154 11.4914 62.7907C10.5912 63.2716 9.50755 63.7691 8.27386 64.2334C5.87318 62.3098 4.58949 59.7893 4.60616 57.3682C4.62283 55.5938 5.47307 53.8526 7.04018 52.8245C8.15717 52.1114 9.54089 51.7466 11.1413 51.7632Z" fill="currentColor" fill-opacity="0.87"/>
</svg>
